<svg  width="64" height="64" viewBox="0 0 64 64" fill="none" xmlns="http://www.w3.org/2000/svg">
<path d="M32 0.888916C23.7488 0.888916 15.8356 4.16668 10.0011 10.0011C4.16665 15.8356 0.888885 23.7488 0.888885 32C0.892234 32.5929 0.912532 33.1857 0.949755 33.7774L2.72715 32H4.6398L1.1229 35.5169C1.17709 36.0869 1.247 36.6552 1.33256 37.2213L6.55381 32H8.46647L1.67884 38.7877C1.78266 39.3109 1.89993 39.8314 2.03053 40.3486L10.3791 32H12.2918L2.50802 41.7824C2.65503 42.2655 2.81379 42.745 2.98415 43.2203L14.2071 32H16.1198L3.57256 44.5459C3.75887 44.991 3.95551 45.4316 4.16232 45.8675L18.0325 32H19.9451L4.84135 47.1011C5.06441 47.5112 5.29668 47.9162 5.53797 48.3158L21.8578 32H23.7704L6.2941 49.4736C6.5528 49.851 6.81979 50.2226 7.09488 50.5882L25.6831 32H27.5957L7.9227 51.6717C8.21374 52.0182 8.51229 52.3582 8.81816 52.6916L29.5084 32H31.4211L9.7285 53.6926C10.0476 54.0121 10.3737 54.3246 10.7065 54.63L33.3337 32H35.2464L11.6966 55.5525C12.0443 55.8438 12.3983 56.1275 12.7584 56.4033L37.1604 32H39.073L13.846 57.2298C14.2176 57.4983 14.5951 57.7585 14.9782 58.0103L40.9857 32H42.8983L16.1644 58.7366C16.5618 58.9801 16.9645 59.2146 17.3724 59.44L42.7874 34.0236L44.7001 32.1109L44.811 32H46.7237L45.6551 33.0686L18.6628 60.0636C19.0904 60.2787 19.5229 60.4839 19.96 60.6791L46.6141 34.0222L48.6363 32H50.549L47.5691 34.9799L21.3546 61.1931C21.8184 61.3752 22.2866 61.5461 22.7586 61.7057L48.5254 35.939L52.4643 32H54.377L49.4804 36.8966L24.2804 62.0966C24.7842 62.2402 25.2917 62.371 25.8021 62.4889L50.4381 37.8516L56.2897 32H58.2023L51.3944 38.8079L27.4632 62.7392C28.0223 62.8311 28.5839 62.9078 29.1472 62.9691L52.3534 39.7643L60.115 32H62.029L53.3111 40.7206L30.9706 63.0584C31.3134 63.0816 31.6566 63.0992 32 63.1111C32.2864 63.1056 32.5728 63.0962 32.8589 63.0827L54.2647 41.6769L63.0651 32.8738C63.0845 32.5828 63.0999 32.2915 63.1111 32C63.1111 23.7488 59.8333 15.8356 53.9989 10.0011C48.1644 4.16668 40.2512 0.888916 32 0.888916ZM9.7285 53.6926C9.6633 53.6302 9.59837 53.5675 9.53372 53.5046C9.59594 53.5708 9.65546 53.6398 9.71768 53.7034L9.7285 53.6926ZM0.957871 33.9614C0.973705 34.1748 0.991741 34.3881 1.01198 34.6012C0.994392 34.3875 0.971397 34.1765 0.957871 33.9614ZM62.9664 34.892L55.2224 42.6346L34.9055 62.9515C35.6334 62.8892 36.3589 62.8012 37.0806 62.6878L54.2647 45.5022L56.1774 43.5896L62.6498 37.1144C62.7816 36.3772 62.8868 35.6355 62.965 34.8907L62.9664 34.892ZM62.5606 37.7082C62.5011 38.0329 62.4334 38.3562 62.3631 38.6781C62.4345 38.3559 62.5008 38.0326 62.5619 37.7082H62.5606ZM62.144 39.5384L57.1351 44.5473L55.2224 46.4599L39.5248 62.1589C40.4491 61.9259 41.3622 61.6506 42.2612 61.3337L56.1787 47.4163L58.0914 45.5036L61.331 42.2653C61.6434 41.3692 61.9147 40.4593 62.144 39.5384ZM2.98956 43.2311C3.00884 43.2781 3.02822 43.325 3.04773 43.3718C3.02879 43.3245 3.00715 43.2798 2.98956 43.2325V43.2311ZM59.9635 45.5442L59.0477 46.4599L57.1351 48.3739L45.5103 59.9973C47.1992 59.1778 48.8105 58.2072 50.3244 57.0972L57.1161 50.3042C58.2056 48.8051 59.159 47.2116 59.9648 45.5428L59.9635 45.5442ZM4.23671 46.0325C4.27519 46.1066 4.31397 46.1805 4.35304 46.2543L4.23671 46.0325ZM5.73816 48.6702C5.79987 48.7652 5.86209 48.8599 5.92483 48.9542L5.73951 48.6702H5.73816ZM7.57236 51.2578C7.6092 51.3057 7.64617 51.3535 7.68328 51.4012L7.57236 51.2578ZM56.2288 51.4729C56.0529 51.6893 55.892 51.9193 55.7107 52.133C55.8864 51.9153 56.0591 51.6952 56.2288 51.4729ZM53.8725 54.1092C53.6019 54.377 53.3125 54.6246 53.0325 54.8829C53.3167 54.6302 53.5963 54.3722 53.8711 54.1092H53.8725ZM51.7217 56.0354C51.4214 56.2816 51.113 56.5183 50.8019 56.7523C51.113 56.5191 51.4196 56.2801 51.7217 56.0354ZM43.3975 60.9428C43.2893 60.9861 43.1811 61.024 43.0728 61.0646C43.1813 61.0246 43.2895 60.984 43.3975 60.9428ZM37.8732 62.5281C37.6298 62.5755 37.3903 62.6377 37.1428 62.6796C37.3869 62.6321 37.6304 62.5816 37.8732 62.5281ZM34.5389 62.9935C34.1047 63.0286 33.6678 63.0543 33.2282 63.0706C33.6656 63.0541 34.1026 63.0284 34.5389 62.9935Z" fill="url(#paint0_linear_2_6034)"/>
<defs>
<linearGradient id="paint0_linear_2_6034" x1="0.888885" y1="37.6566" x2="63.1111" y2="37.6566" gradientUnits="userSpaceOnUse">
<stop stop-color="white"/>
<stop offset="1" stop-color="#CB2AEF"/>
</linearGradient>
</defs>
</svg>
