<svg width="70" height="73" viewBox="0 0 70 73" fill="none" xmlns="http://www.w3.org/2000/svg">
<path fill-rule="red" clip-rule="evenodd" d="M35.0312 11.5308C37.7826 11.5308 40.0134 8.94936 40.0134 5.76533C40.0134 2.58145 37.7826 0 35.0312 0C32.2794 0 30.0489 2.58145 30.0489 5.76533C30.0489 8.94936 32.2794 11.5308 35.0312 11.5308ZM29.6994 12.8032C26.1711 12.8032 23.3336 16.1329 23.3336 20.286V37.9872C23.3336 41.4287 27.6861 41.4287 27.6861 37.9872V21.8014H28.7165V66.1207C28.7165 70.7219 34.5125 70.5865 34.5125 66.1207V40.3939H35.5108V66.1207C35.5108 70.5865 41.3386 70.7219 41.3386 66.1207V21.8014H42.3449V37.9872C42.3449 41.4345 46.6233 41.4549 46.6666 38.0489V40.9872C46.6666 44.4287 51.0192 44.4287 51.0192 40.9872V24.8014H52.0495V69.1207C52.0495 73.7219 57.8455 73.5865 57.8455 69.1207V43.3939H58.8438V69.1207C58.8438 73.5865 64.6716 73.7219 64.6716 69.1207V24.8014H65.6779V40.9872C65.6779 44.4552 70.0077 44.4551 69.9999 40.9872V23.3919C69.9999 19.5623 67.4298 15.8111 63.556 15.8111L53.0324 15.8032C49.5258 15.8032 46.7015 19.0921 46.6669 23.2096V20.3919C46.6669 16.5623 44.0968 12.8111 40.2229 12.8111L29.6994 12.8032ZM11.6977 14.5308C14.4491 14.5308 16.6799 11.9493 16.6799 8.7653C16.6799 5.58142 14.4491 2.99997 11.6977 2.99997C8.94594 2.99997 6.71542 5.58142 6.71542 8.7653C6.71542 11.9493 8.94594 14.5308 11.6977 14.5308ZM6.36586 15.8031C2.83762 15.8031 9.15527e-05 19.1329 9.15527e-05 23.286V40.9872C9.15527e-05 44.4286 4.35265 44.4286 4.35265 40.9872V24.8014H5.38304V69.1207C5.38304 73.7219 11.179 73.5865 11.179 69.1207V43.3939H12.1773V69.1207C12.1773 73.5865 18.0051 73.7219 18.0051 69.1207V24.8014H19.0114V40.9872C19.0114 44.4552 23.3412 44.455 23.3334 40.9872V23.3919C23.3334 19.5622 20.7633 15.8111 16.8894 15.8111L6.36586 15.8031ZM63.3465 8.76533C63.3465 11.9494 61.1156 14.5308 58.3642 14.5308C55.6124 14.5308 53.3819 11.9494 53.3819 8.76533C53.3819 5.58145 55.6124 3 58.3642 3C61.1156 3 63.3465 5.58145 63.3465 8.76533Z" fill="white"
/>
</svg>
